<?xml version="1.0" encoding="utf-8"?>
<!-- Generator: Adobe Illustrator 15.0.0, SVG Export Plug-In  -->
<!DOCTYPE svg PUBLIC "-//W3C//DTD SVG 1.1//EN" "http://www.w3.org/Graphics/SVG/1.1/DTD/svg11.dtd" [
	<!ENTITY ns_flows "http://ns.adobe.com/Flows/1.0/">
]>
<svg version="1.1"
	 xmlns="http://www.w3.org/2000/svg" xmlns:xlink="http://www.w3.org/1999/xlink" xmlns:a="http://ns.adobe.com/AdobeSVGViewerExtensions/3.0/"
	 x="0px" y="0px" width="284px" height="174px" viewBox="0 0 284 174" enable-background="new 0 0 284 174" xml:space="preserve">
<defs>
</defs>
<path fill="#999999" d="M58.314,173.542c0-46.237,37.616-83.854,83.854-83.854s83.854,37.617,83.854,83.854h58.314
	c0-78.392-63.776-142.168-142.169-142.168S0,95.151,0,173.542H58.314z"/>
<path fill="#010002" d="M137.399,70.915c-1.525-0.084-2.84-0.407-3.943-0.968c-1.103-0.561-2.088-1.304-2.955-2.228l2.668-2.843
	c0.682,0.686,1.373,1.228,2.07,1.626c0.698,0.399,1.469,0.621,2.313,0.668c0.97,0.053,1.748-0.13,2.339-0.55
	c0.589-0.419,0.908-1.053,0.954-1.9l0.004-0.055c0.044-0.812-0.229-1.459-0.823-1.945s-1.386-0.755-2.372-0.809
	c-0.592-0.033-1.158,0.003-1.693,0.108c-0.538,0.105-1.035,0.245-1.495,0.417l-2.308-1.72l1.051-9.258l11.597,0.64l-0.201,3.635
	l-8.043-0.444l-0.396,3.27c0.382-0.069,0.764-0.123,1.143-0.165c0.381-0.042,0.83-0.048,1.352-0.02
	c0.917,0.051,1.768,0.214,2.556,0.491c0.787,0.277,1.473,0.674,2.05,1.19c0.578,0.518,1.019,1.166,1.32,1.946
	c0.301,0.781,0.424,1.699,0.365,2.755l-0.003,0.054c-0.056,1.002-0.278,1.894-0.665,2.67c-0.387,0.779-0.907,1.432-1.563,1.962
	c-0.653,0.53-1.435,0.923-2.343,1.177C139.467,70.876,138.476,70.974,137.399,70.915z"/>
<path fill="#010002" d="M154.356,71.851c-1.525-0.084-2.839-0.408-3.941-0.968c-1.104-0.561-2.089-1.304-2.955-2.228l2.669-2.843
	c0.682,0.685,1.371,1.228,2.068,1.626c0.7,0.399,1.47,0.621,2.313,0.667c0.969,0.054,1.748-0.129,2.341-0.549
	c0.589-0.419,0.906-1.053,0.954-1.901l0.003-0.055c0.045-0.813-0.23-1.459-0.824-1.945c-0.593-0.485-1.384-0.755-2.372-0.81
	c-0.592-0.033-1.156,0.003-1.692,0.109c-0.537,0.105-1.036,0.245-1.496,0.417l-2.307-1.721l1.052-9.258l11.595,0.64l-0.2,3.635
	l-8.043-0.445l-0.397,3.27c0.382-0.068,0.764-0.123,1.144-0.165c0.382-0.042,0.831-0.047,1.352-0.019
	c0.916,0.051,1.767,0.214,2.556,0.491c0.788,0.277,1.471,0.674,2.05,1.191c0.579,0.518,1.019,1.166,1.32,1.946
	c0.3,0.781,0.422,1.698,0.363,2.755l-0.002,0.053c-0.057,1.003-0.276,1.894-0.665,2.671c-0.387,0.778-0.907,1.432-1.562,1.962
	c-0.656,0.529-1.436,0.922-2.344,1.177S155.436,71.911,154.356,71.851z"/>
<path fill="#010002" d="M66.549,99.126l0.416-8.107c0.039-0.765,0.058-1.43,0.048-1.995c-0.007-0.566-0.054-1.062-0.137-1.49
	c-0.084-0.428-0.209-0.798-0.375-1.106c-0.168-0.312-0.399-0.599-0.69-0.864c-0.598-0.543-1.207-0.78-1.825-0.709
	c-0.62,0.066-1.183,0.38-1.691,0.938c-0.497,0.545-0.78,1.167-0.854,1.865c-0.075,0.697-0.027,1.596,0.139,2.693l-3.694,0.58
	c-0.153-0.771-0.253-1.498-0.293-2.18c-0.041-0.681-0.002-1.335,0.119-1.967c0.121-0.629,0.339-1.25,0.659-1.859
	c0.319-0.607,0.763-1.224,1.332-1.85c0.652-0.719,1.349-1.278,2.093-1.685c0.746-0.405,1.493-0.647,2.246-0.729
	c0.755-0.08,1.503,0.005,2.247,0.254c0.742,0.25,1.441,0.672,2.092,1.265l0.041,0.035c0.585,0.532,1.037,1.083,1.356,1.651
	c0.322,0.571,0.549,1.191,0.684,1.858c0.133,0.667,0.191,1.419,0.176,2.253c-0.019,0.836-0.066,1.776-0.141,2.822l-0.309,3.87
	l5.525-6.089l2.656,2.411l-9.389,10.34L66.549,99.126z"/>
<path fill="#010002" d="M87.771,86.175c-1.043,0.704-2.132,1.139-3.265,1.306c-1.135,0.168-2.245,0.094-3.335-0.223
	c-1.093-0.315-2.133-0.854-3.123-1.618c-0.99-0.762-1.867-1.711-2.632-2.843l-0.03-0.045c-0.764-1.133-1.31-2.303-1.636-3.514
	c-0.327-1.208-0.432-2.385-0.313-3.527c0.119-1.143,0.466-2.21,1.042-3.207c0.576-0.992,1.386-1.843,2.431-2.546
	c1.028-0.692,2.108-1.124,3.242-1.29c1.134-0.167,2.245-0.093,3.335,0.223c1.092,0.316,2.137,0.853,3.133,1.612
	c0.999,0.755,1.881,1.701,2.643,2.835l0.031,0.045c0.763,1.131,1.308,2.304,1.636,3.513c0.326,1.211,0.432,2.387,0.313,3.528
	c-0.119,1.143-0.467,2.211-1.042,3.205C89.623,84.625,88.813,85.473,87.771,86.175z M85.722,83.038
	c0.521-0.351,0.908-0.792,1.159-1.316c0.254-0.528,0.379-1.111,0.381-1.751c0.002-0.642-0.122-1.316-0.373-2.027
	c-0.249-0.708-0.615-1.419-1.099-2.134l-0.03-0.046c-0.483-0.715-1.007-1.319-1.578-1.813c-0.571-0.493-1.161-0.86-1.768-1.102
	s-1.206-0.345-1.802-0.313c-0.598,0.032-1.148,0.219-1.655,0.561c-0.521,0.352-0.906,0.793-1.161,1.318
	c-0.251,0.527-0.371,1.11-0.365,1.745c0.005,0.635,0.127,1.311,0.372,2.023c0.241,0.714,0.603,1.429,1.086,2.146l0.03,0.045
	c0.48,0.715,1.011,1.324,1.586,1.824c0.576,0.501,1.163,0.871,1.757,1.108c0.594,0.238,1.188,0.343,1.784,0.31
	C84.642,83.583,85.198,83.39,85.722,83.038z"/>
<path fill="#010002" d="M102.62,77.851c-1.369,0.679-2.67,1.048-3.909,1.102c-1.235,0.056-2.458-0.107-3.667-0.482l0.919-3.788
	c0.932,0.259,1.8,0.392,2.603,0.394c0.805,0.004,1.586-0.183,2.343-0.559c0.868-0.43,1.456-0.973,1.765-1.629
	c0.306-0.657,0.271-1.365-0.106-2.125l-0.024-0.05c-0.361-0.728-0.92-1.157-1.674-1.286c-0.756-0.129-1.58,0.025-2.465,0.465
	c-0.53,0.263-1.005,0.572-1.42,0.928c-0.416,0.357-0.779,0.725-1.094,1.101l-2.856-0.361l-3.647-8.571l10.405-5.158l1.617,3.26
	l-7.218,3.577l1.266,3.042c0.299-0.246,0.604-0.483,0.914-0.707c0.31-0.224,0.698-0.449,1.167-0.681
	c0.82-0.406,1.642-0.684,2.464-0.832c0.824-0.148,1.614-0.139,2.372,0.024c0.757,0.167,1.46,0.515,2.106,1.042
	c0.646,0.531,1.205,1.27,1.676,2.218l0.023,0.05c0.445,0.898,0.691,1.782,0.738,2.65c0.047,0.869-0.085,1.694-0.394,2.478
	c-0.306,0.783-0.794,1.51-1.457,2.179C104.402,76.8,103.585,77.373,102.62,77.851z"/>
<path fill="#010002" d="M120.632,50.378l3.391-0.78l-6.041,27.008l-3.39,0.78L120.632,50.378z"/>
<path fill="#010002" d="M179.176,56.864l7.966,3.317c2.205,0.918,3.651,2.213,4.338,3.881c0.584,1.412,0.527,2.945-0.164,4.604
	l-0.021,0.051c-0.587,1.41-1.411,2.416-2.467,3.015c-1.058,0.602-2.231,0.879-3.516,0.831l1.665,7.994l-4.482-1.866l-1.408-7.129
	l-0.048-0.021l-2.965-1.233l-2.321,5.574l-3.835-1.596L179.176,56.864z M183.366,68.539c0.945,0.394,1.767,0.472,2.458,0.235
	c0.693-0.237,1.193-0.729,1.507-1.476l0.019-0.049c0.347-0.83,0.341-1.563-0.02-2.199c-0.357-0.636-1.008-1.151-1.954-1.545
	l-3.809-1.585l-2.085,5.001L183.366,68.539z"/>
<path fill="#010002" d="M200.151,72.518l-3.23-1.022l1.035-3.349l5.467,1.441l2.416,1.474l-9.902,16.226l-3.496-2.135
	L200.151,72.518z"/>
<path fill="#010002" d="M205.305,94.533c-1.018-0.713-1.779-1.457-2.289-2.23c-0.511-0.776-0.848-1.625-1.009-2.552
	c-0.169-0.95-0.098-1.995,0.205-3.133c0.301-1.137,0.991-2.469,2.063-4l0.033-0.044c0.835-1.191,1.751-2.208,2.744-3.046
	c0.996-0.839,2.035-1.438,3.121-1.797s2.209-0.456,3.365-0.292c1.156,0.166,2.313,0.65,3.46,1.455
	c0.528,0.372,0.989,0.749,1.378,1.131c0.389,0.383,0.727,0.781,1.005,1.196c0.281,0.413,0.523,0.852,0.729,1.311
	c0.202,0.46,0.384,0.939,0.54,1.44l-3.624,1.363c-0.118-0.368-0.24-0.71-0.366-1.031c-0.127-0.32-0.279-0.617-0.458-0.896
	c-0.177-0.278-0.387-0.545-0.624-0.8c-0.237-0.256-0.52-0.496-0.843-0.723c-0.483-0.341-0.977-0.545-1.464-0.613
	c-0.489-0.068-0.976-0.033-1.458,0.105c-0.48,0.138-0.949,0.377-1.407,0.717c-0.457,0.341-0.895,0.744-1.305,1.206
	c0.555,0.018,1.156,0.097,1.793,0.236c0.638,0.138,1.338,0.479,2.104,1.015c0.765,0.535,1.402,1.144,1.918,1.821
	c0.51,0.678,0.867,1.393,1.061,2.147c0.198,0.75,0.223,1.531,0.074,2.336c-0.147,0.807-0.508,1.617-1.075,2.424l-0.03,0.045
	c-0.558,0.794-1.218,1.413-1.979,1.856c-0.759,0.444-1.566,0.719-2.421,0.821c-0.85,0.106-1.726,0.034-2.63-0.215
	C207.014,95.539,206.142,95.121,205.305,94.533z M207.244,91.513c0.84,0.589,1.644,0.836,2.403,0.737
	c0.765-0.098,1.376-0.476,1.841-1.134l0.03-0.045c0.463-0.66,0.599-1.366,0.414-2.12c-0.189-0.754-0.706-1.426-1.546-2.015
	c-0.844-0.593-1.642-0.846-2.394-0.762c-0.755,0.083-1.36,0.456-1.822,1.115l-0.03,0.042c-0.462,0.659-0.605,1.373-0.428,2.142
	C205.89,90.241,206.396,90.921,207.244,91.513z"/>
<path fill="#FFFFFF" d="M46.762,0.103h2.096l4.427,10.404h-2.375L49.964,8.19h-4.367l-0.945,2.317h-2.317L46.762,0.103z
	 M49.152,6.183l-1.373-3.35l-1.372,3.35H49.152z"/>
<path fill="#FFFFFF" d="M54.879,0.177h2.096l4.84,6.36v-6.36h2.243v10.33h-1.934L57.121,3.94v6.567h-2.242V0.177z"/>
<path fill="#FFFFFF" d="M71.377,10.684c-0.758,0-1.462-0.138-2.109-0.414c-0.65-0.275-1.211-0.651-1.684-1.129
	c-0.472-0.477-0.841-1.041-1.106-1.689c-0.266-0.65-0.398-1.343-0.398-2.081v-0.03c0-0.738,0.133-1.429,0.398-2.074
	c0.266-0.644,0.635-1.21,1.106-1.697c0.473-0.487,1.039-0.871,1.697-1.151C69.94,0.14,70.669,0,71.466,0
	c0.481,0,0.922,0.039,1.32,0.118c0.398,0.079,0.76,0.187,1.084,0.325c0.325,0.138,0.625,0.305,0.901,0.502
	c0.274,0.197,0.531,0.413,0.767,0.649l-1.445,1.667c-0.404-0.364-0.814-0.649-1.233-0.856c-0.418-0.206-0.887-0.31-1.409-0.31
	c-0.433,0-0.834,0.084-1.202,0.25c-0.369,0.168-0.687,0.399-0.952,0.694s-0.472,0.637-0.62,1.026
	c-0.147,0.389-0.221,0.804-0.221,1.247v0.03c0,0.442,0.073,0.861,0.221,1.254c0.148,0.394,0.353,0.738,0.613,1.033
	c0.26,0.295,0.575,0.529,0.944,0.701c0.369,0.173,0.774,0.258,1.217,0.258c0.591,0,1.09-0.108,1.498-0.325
	c0.408-0.216,0.813-0.512,1.217-0.885l1.447,1.461c-0.267,0.286-0.542,0.541-0.826,0.767c-0.286,0.227-0.598,0.421-0.938,0.583
	c-0.34,0.163-0.711,0.286-1.113,0.369C72.331,10.642,71.878,10.684,71.377,10.684z"/>
<path fill="#FFFFFF" d="M77.427,0.177H79.7v4.088h4.191V0.177h2.271v10.33h-2.271V6.36H79.7v4.147h-2.273V0.177z"/>
<path fill="#FFFFFF" d="M93.66,10.684c-0.797,0-1.529-0.14-2.198-0.421c-0.67-0.28-1.247-0.659-1.734-1.136
	c-0.486-0.477-0.865-1.038-1.136-1.682c-0.271-0.644-0.405-1.336-0.405-2.073v-0.03c0-0.738,0.137-1.429,0.412-2.074
	c0.275-0.644,0.657-1.21,1.144-1.697c0.487-0.487,1.068-0.871,1.742-1.151C92.157,0.14,92.894,0,93.69,0s1.529,0.14,2.198,0.42
	s1.246,0.659,1.733,1.136c0.488,0.478,0.866,1.039,1.137,1.683c0.271,0.645,0.406,1.335,0.406,2.073v0.03
	c0,0.737-0.138,1.43-0.413,2.073c-0.276,0.645-0.657,1.21-1.145,1.697c-0.486,0.487-1.067,0.871-1.741,1.151
	C95.193,10.544,94.457,10.684,93.66,10.684z M93.69,8.588c0.451,0,0.87-0.084,1.254-0.251c0.384-0.167,0.711-0.398,0.981-0.693
	c0.271-0.295,0.481-0.637,0.634-1.026c0.153-0.389,0.229-0.804,0.229-1.247v-0.03c0-0.443-0.076-0.861-0.229-1.254
	c-0.152-0.394-0.368-0.738-0.649-1.033c-0.28-0.295-0.611-0.529-0.995-0.701c-0.384-0.172-0.802-0.258-1.255-0.258
	c-0.462,0-0.883,0.084-1.262,0.25c-0.379,0.168-0.703,0.399-0.974,0.694s-0.482,0.637-0.635,1.026s-0.229,0.804-0.229,1.247v0.03
	c0,0.442,0.076,0.861,0.229,1.254s0.369,0.738,0.649,1.033s0.609,0.529,0.988,0.701C92.807,8.503,93.229,8.588,93.69,8.588z"/>
<path fill="#FFFFFF" d="M118.143,0.177h4.221c0.619,0,1.173,0.086,1.66,0.258s0.899,0.416,1.239,0.73s0.601,0.691,0.782,1.129
	c0.182,0.438,0.272,0.922,0.272,1.454v0.03c0,0.6-0.107,1.126-0.323,1.579c-0.218,0.453-0.515,0.832-0.894,1.136
	c-0.379,0.305-0.822,0.534-1.328,0.686c-0.507,0.153-1.05,0.229-1.631,0.229h-1.727v3.099h-2.272V0.177z M122.216,5.386
	c0.57,0,1.013-0.15,1.328-0.451c0.314-0.3,0.473-0.671,0.473-1.114v-0.03c0-0.511-0.165-0.9-0.495-1.166
	c-0.329-0.266-0.779-0.398-1.351-0.398h-1.756v3.158H122.216z"/>
<path fill="#FFFFFF" d="M128,0.177h7.777v2.022h-5.533v2.095h4.869v2.022h-4.869v2.169h5.606v2.021H128V0.177z"/>
<path fill="#FFFFFF" d="M137.887,0.177h4.723c1.309,0,2.313,0.349,3.012,1.048c0.589,0.59,0.885,1.377,0.885,2.361v0.03
	c0,0.836-0.204,1.518-0.612,2.043c-0.409,0.527-0.942,0.913-1.602,1.159l2.524,3.689h-2.657l-2.214-3.306h-0.029h-1.756v3.306
	h-2.273V0.177z M142.462,5.194c0.561,0,0.991-0.133,1.292-0.398c0.299-0.266,0.449-0.62,0.449-1.063v-0.03
	c0-0.492-0.157-0.86-0.471-1.106c-0.315-0.246-0.754-0.369-1.313-0.369h-2.259v2.966H142.462z"/>
<path fill="#FFFFFF" d="M148.557,0.177h7.866v2.051h-5.594v2.228h4.929v2.052h-4.929v3.999h-2.272V0.177z"/>
<path fill="#FFFFFF" d="M158.341,0.177h2.271v10.33h-2.271V0.177z"/>
<path fill="#FFFFFF" d="M163.195,0.177h2.272v8.279h5.15v2.051h-7.423V0.177z"/>
<path fill="#FFFFFF" d="M195.992,0.103h2.096l4.427,10.404h-2.376l-0.944-2.317h-4.368l-0.944,2.317h-2.316L195.992,0.103z
	 M198.383,6.183l-1.373-3.35l-1.372,3.35H198.383z"/>
<path fill="#FFFFFF" d="M204.107,0.177h4.724c1.308,0,2.312,0.349,3.009,1.048c0.592,0.59,0.886,1.377,0.886,2.361v0.03
	c0,0.836-0.203,1.518-0.611,2.043c-0.409,0.527-0.943,0.913-1.602,1.159l2.524,3.689h-2.657l-2.214-3.306h-0.029h-1.756v3.306
	h-2.273V0.177z M208.683,5.194c0.561,0,0.991-0.133,1.292-0.398c0.299-0.266,0.449-0.62,0.449-1.063v-0.03
	c0-0.492-0.157-0.86-0.473-1.106c-0.314-0.246-0.752-0.369-1.313-0.369h-2.257v2.966H208.683z"/>
<path fill="#FFFFFF" d="M219.795,10.684c-0.797,0-1.53-0.14-2.199-0.421c-0.669-0.28-1.247-0.659-1.733-1.136
	c-0.487-0.477-0.865-1.038-1.137-1.682c-0.271-0.644-0.405-1.336-0.405-2.073v-0.03c0-0.738,0.138-1.429,0.413-2.074
	c0.275-0.644,0.656-1.21,1.144-1.697c0.486-0.487,1.067-0.871,1.742-1.151c0.673-0.28,1.408-0.42,2.205-0.42s1.53,0.14,2.199,0.42
	s1.247,0.659,1.734,1.136c0.486,0.478,0.865,1.039,1.137,1.683c0.27,0.645,0.405,1.335,0.405,2.073v0.03
	c0,0.737-0.138,1.43-0.414,2.073c-0.274,0.645-0.656,1.21-1.144,1.697c-0.486,0.487-1.067,0.871-1.74,1.151
	C221.327,10.544,220.592,10.684,219.795,10.684z M219.824,8.588c0.453,0,0.871-0.084,1.255-0.251
	c0.383-0.167,0.71-0.398,0.981-0.693c0.271-0.295,0.481-0.637,0.634-1.026c0.153-0.389,0.229-0.804,0.229-1.247v-0.03
	c0-0.443-0.076-0.861-0.229-1.254c-0.152-0.394-0.368-0.738-0.648-1.033c-0.281-0.295-0.612-0.529-0.997-0.701
	c-0.384-0.172-0.801-0.258-1.254-0.258c-0.462,0-0.883,0.084-1.261,0.25c-0.379,0.168-0.704,0.399-0.975,0.694
	s-0.482,0.637-0.635,1.026s-0.229,0.804-0.229,1.247v0.03c0,0.442,0.076,0.861,0.229,1.254s0.369,0.738,0.649,1.033
	c0.279,0.295,0.609,0.529,0.988,0.701C218.941,8.503,219.362,8.588,219.824,8.588z"/>
<path fill="#FFFFFF" d="M70.794,60.829c-0.581,0-1.054-0.472-1.054-1.054V17.517c0-0.582,0.473-1.054,1.054-1.054
	c0.583,0,1.055,0.472,1.055,1.054v42.259C71.849,60.357,71.377,60.829,70.794,60.829z"/>
<path fill="#FFFFFF" d="M142.176,39.625c-0.582,0-1.055-0.472-1.055-1.054V17.517c0-0.582,0.473-1.054,1.055-1.054
	s1.054,0.472,1.054,1.054v21.055C143.229,39.153,142.758,39.625,142.176,39.625z"/>
<path fill="#FFFFFF" d="M208.207,60.829c-0.582,0-1.054-0.472-1.054-1.054V17.517c0-0.582,0.472-1.054,1.054-1.054
	c0.583,0,1.055,0.472,1.055,1.054v42.259C209.262,60.357,208.79,60.829,208.207,60.829z"/>
<path fill="none" d="M120.552,142.714c0,0,0.003-0.009,0.003-0.01c-1.282,0-17.067,0-26.232,0L120.552,142.714z"/>
<path fill="none" d="M92.378,142.705c0.604,0,1.257,0,1.944,0l-1.957-0.001C92.369,142.704,92.373,142.705,92.378,142.705z"/>
<path fill="none" d="M127.211,151.469c-0.022-0.008-0.04-0.023-0.062-0.032c-0.179-0.075-0.372-0.118-0.559-0.173
	c-0.494-0.148-1.006-0.253-1.547-0.253s-1.053,0.104-1.546,0.253c-0.188,0.055-0.381,0.098-0.56,0.173
	c-0.021,0.009-0.04,0.024-0.061,0.032c-1.906,0.836-3.241,2.734-3.241,4.95c0,0.372,0.038,0.737,0.109,1.089
	c0.505,2.464,2.685,4.318,5.298,4.318s4.793-1.854,5.297-4.318c0.073-0.352,0.111-0.717,0.111-1.089
	C130.452,154.204,129.115,152.305,127.211,151.469z"/>
<path fill="none" d="M161.458,151.469c-0.021-0.008-0.039-0.023-0.062-0.032c-0.177-0.075-0.37-0.118-0.559-0.173
	c-0.491-0.148-1.004-0.253-1.545-0.253s-1.056,0.104-1.548,0.253c-0.187,0.055-0.379,0.098-0.558,0.173
	c-0.022,0.009-0.04,0.024-0.062,0.032c-1.905,0.836-3.242,2.734-3.242,4.95c0,0.372,0.038,0.737,0.111,1.089
	c0.505,2.464,2.685,4.318,5.298,4.318s4.793-1.854,5.298-4.318c0.07-0.352,0.108-0.717,0.108-1.089
	C164.699,154.204,163.364,152.305,161.458,151.469z"/>
<path fill="#EDEEF0" d="M218.162,173.542c0-41.902-34.091-75.993-75.995-75.993c-41.901,0-75.992,34.091-75.992,75.993h12.052
	c-0.017-0.5-0.047-0.999-0.052-1.5c-0.008-0.71,0.127-1.506,0.385-2.275c0.904-2.689,3.423-5.036,7.548-2.115
	c2.228,1.577,5.226,3.699,8.321,5.891h36.42c0-6.251,5.068-11.319,11.32-11.319s11.32,5.068,11.32,11.319h36.419
	c3.095-2.191,6.094-4.313,8.321-5.891c4.125-2.921,6.644-0.574,7.548,2.115c0.258,0.77,0.393,1.565,0.385,2.275
	c-0.005,0.501-0.035,1-0.052,1.5H218.162z M94.646,144.706l-1.957-0.001c-5.22-0.006-5.787-3.615-4.837-6.374
	c0.23-0.669,0.548-1.29,0.913-1.795c2.84-3.93,6.127-7.505,9.741-10.722c0.599-0.547,1.206-1.084,1.824-1.608
	c6.681-5.668,14.423-9.967,22.741-12.643c0.677-0.218,1.477-0.326,2.288-0.308c2.837,0.064,5.826,1.772,4.262,6.579
	c-1.979,6.083-5.563,17.097-7.47,22.958c-0.76,2.336-3.147,3.913-6.147,3.913C110.303,144.706,100.923,144.706,94.646,144.706z
	 M130.341,159.224c-0.504,2.464-2.684,4.318-5.297,4.318s-4.793-1.854-5.298-4.318c-0.071-0.352-0.109-0.717-0.109-1.089
	c0-2.216,1.335-4.114,3.241-4.95c0.021-0.008,0.04-0.023,0.061-0.032c0.179-0.075,0.371-0.118,0.56-0.173
	c0.493-0.148,1.005-0.253,1.546-0.253s1.053,0.104,1.547,0.253c0.187,0.055,0.38,0.098,0.559,0.173
	c0.021,0.009,0.039,0.024,0.062,0.032c1.904,0.836,3.241,2.734,3.241,4.95C130.452,158.507,130.414,158.873,130.341,159.224z
	 M164.591,159.224c-0.505,2.464-2.685,4.318-5.298,4.318s-4.793-1.854-5.298-4.318c-0.073-0.352-0.111-0.717-0.111-1.089
	c0-2.216,1.337-4.114,3.242-4.95c0.021-0.008,0.039-0.023,0.062-0.032c0.179-0.075,0.371-0.118,0.558-0.173
	c0.492-0.148,1.007-0.253,1.548-0.253s1.054,0.104,1.545,0.253c0.188,0.055,0.382,0.098,0.559,0.173
	c0.022,0.009,0.041,0.024,0.062,0.032c1.906,0.836,3.241,2.734,3.241,4.95C164.699,158.507,164.661,158.873,164.591,159.224z
	 M191.563,144.705l-1.957,0.001c-6.276,0-15.656,0-21.358,0c-3,0-5.388-1.577-6.147-3.913c-1.907-5.861-5.491-16.875-7.47-22.958
	c-1.564-4.807,1.425-6.515,4.262-6.579c0.812-0.019,1.611,0.09,2.288,0.308c8.318,2.676,16.061,6.975,22.741,12.643
	c0.618,0.524,1.226,1.062,1.824,1.608c3.614,3.217,6.901,6.792,9.741,10.722c0.365,0.505,0.683,1.126,0.913,1.795
	C197.35,141.089,196.782,144.699,191.563,144.705z"/>
</svg>
