<?xml version="1.0" encoding="utf-8"?>
<!-- Generator: Adobe Illustrator 15.0.0, SVG Export Plug-In  -->
<!DOCTYPE svg PUBLIC "-//W3C//DTD SVG 1.1//EN" "http://www.w3.org/Graphics/SVG/1.1/DTD/svg11.dtd" [
	<!ENTITY ns_flows "http://ns.adobe.com/Flows/1.0/">
]>
<svg version="1.1"
	 xmlns="http://www.w3.org/2000/svg" xmlns:xlink="http://www.w3.org/1999/xlink" xmlns:a="http://ns.adobe.com/AdobeSVGViewerExtensions/3.0/"
	 x="0px" y="0px" width="234px" height="60px" viewBox="0 0 234 60" enable-background="new 0 0 234 60" xml:space="preserve">
<defs>
</defs>
<g>
	<defs>
		<rect id="SVGID_4_" x="149.25" width="84.76" height="59.544"/>
	</defs>
	<clipPath id="SVGID_5_">
		<use xlink:href="#SVGID_4_"  overflow="visible"/>
	</clipPath>
	<path clip-path="url(#SVGID_5_)" fill="#FE5000" d="M233.719,38.194l-8.294-11.677c-0.293-0.414-0.77-0.66-1.277-0.66h-71.699
		c-0.865,0-1.567,0.702-1.567,1.568v23.356c0,0.867,0.702,1.567,1.567,1.567h8.419c0.754,0,1.386,0.543,1.529,1.283
		c0.652,3.368,3.608,5.913,7.168,5.913c3.559,0,6.516-2.545,7.169-5.913c0.143-0.74,0.774-1.283,1.528-1.283h24.135
		c0.755,0,1.387,0.543,1.531,1.283c0.651,3.368,3.607,5.913,7.167,5.913c3.559,0,6.515-2.545,7.166-5.913
		c0.145-0.74,0.776-1.283,1.531-1.283h4.355c0.508,0,0.984-0.245,1.277-0.66l8.294-11.678
		C234.106,39.468,234.106,38.74,233.719,38.194"/>
	<g clip-path="url(#SVGID_5_)">
		<text transform="matrix(1 0 0 1 1.2598 25.2212)"><tspan x="0" y="0" font-family="'Rubik-Medium'" font-size="29.6733">!&quot;</tspan><tspan x="18.249" y="0" font-family="'Rubik-Medium'" font-size="29.6733">#</tspan><tspan x="33.679" y="0" font-family="'Rubik-Medium'" font-size="29.6733">$</tspan><tspan x="49.613" y="0" font-family="'Rubik-Medium'" font-size="29.6733">%</tspan><tspan x="73.796" y="0" font-family="'Rubik-Medium'" font-size="29.6733">&quot;</tspan><tspan x="84.508" y="0" font-family="'Rubik-Medium'" font-size="29.6733">&amp;</tspan><tspan x="102.579" y="0" font-family="'Rubik-Medium'" font-size="29.6733">&apos;</tspan><tspan x="108.84" y="0" font-family="'Rubik-Medium'" font-size="29.6733">(</tspan></text>
	</g>
	<g clip-path="url(#SVGID_5_)">
		<text transform="matrix(1 0 0 1 1.2598 47.0918)"><tspan x="0" y="0" font-family="'Rubik-Medium'" font-size="29.6733">)*(</tspan><tspan x="27.032" y="0" font-family="'Rubik-Medium'" font-size="29.6733">#</tspan><tspan x="41.038" y="0" font-family="'Rubik-Medium'" font-size="29.6733">&quot;</tspan><tspan x="50.177" y="0" font-family="'Rubik-Medium'" font-size="29.6733">&apos;</tspan><tspan x="55.043" y="0" font-family="'Rubik-Medium'" font-size="29.6733">%</tspan><tspan x="77.802" y="0" font-family="'Rubik-Medium'" font-size="29.6733">!+</tspan><tspan x="100.888" y="0" font-family="'Rubik-Medium'" font-size="29.6733">&amp;</tspan></text>
	</g>
</g>
<g>
	<defs>
		<rect id="SVGID_3_" y="1.146" width="146.724" height="52.134"/>
	</defs>
	<clipPath id="SVGID_6_">
		<use xlink:href="#SVGID_3_"  overflow="visible"/>
	</clipPath>
	<path clip-path="url(#SVGID_6_)" d="M2.104,21.319c-1.304-1.213-1.995-2.894-2.073-5.043l-0.03-1.193l0.03-1.193
		c0.078-2.148,0.77-3.832,2.073-5.043c1.302-1.215,3.049-1.821,5.237-1.821c1.571,0,2.899,0.278,3.985,0.834
		c1.082,0.557,1.889,1.24,2.415,2.046c0.528,0.804,0.813,1.577,0.852,2.313c0.019,0.198-0.044,0.368-0.194,0.506
		c-0.149,0.141-0.322,0.209-0.521,0.209h-2.657c-0.219,0-0.378-0.046-0.478-0.134c-0.099-0.091-0.198-0.253-0.297-0.494
		c-0.3-0.754-0.692-1.301-1.18-1.64c-0.489-0.339-1.11-0.509-1.866-0.509c-1.015,0-1.806,0.319-2.373,0.957
		c-0.566,0.637-0.87,1.612-0.91,2.925l-0.03,1.104l0.03,0.984c0.12,2.587,1.215,3.879,3.283,3.879c0.776,0,1.403-0.165,1.88-0.494
		c0.478-0.327,0.866-0.879,1.166-1.654c0.078-0.22,0.173-0.378,0.282-0.478c0.11-0.1,0.273-0.15,0.492-0.15h2.657
		c0.198,0,0.371,0.07,0.521,0.209c0.15,0.14,0.213,0.309,0.194,0.507c-0.039,0.698-0.317,1.446-0.836,2.253
		c-0.518,0.806-1.313,1.497-2.387,2.074c-1.074,0.578-2.418,0.865-4.029,0.865C5.153,23.14,3.406,22.536,2.104,21.319"/>
	<path clip-path="url(#SVGID_6_)" d="M20.13,22.527c-0.847-0.405-1.512-0.958-1.999-1.655c-0.489-0.697-0.732-1.463-0.732-2.299
		c0-1.352,0.548-2.447,1.643-3.283c1.094-0.835,2.596-1.4,4.506-1.702l4.088-0.596v-0.626c0-0.855-0.219-1.502-0.656-1.94
		c-0.438-0.438-1.133-0.655-2.09-0.655c-0.655,0-1.183,0.118-1.581,0.356c-0.399,0.239-0.721,0.484-0.97,0.732
		c-0.249,0.249-0.413,0.413-0.491,0.491c-0.081,0.24-0.229,0.358-0.448,0.358H19.07c-0.18,0-0.335-0.061-0.464-0.179
		c-0.129-0.12-0.193-0.278-0.193-0.478c0.021-0.497,0.264-1.061,0.731-1.686c0.467-0.628,1.189-1.173,2.163-1.641
		c0.976-0.467,2.181-0.702,3.611-0.702c2.349,0,4.06,0.527,5.134,1.582c1.073,1.055,1.612,2.438,1.612,4.148v9.371
		c0,0.199-0.066,0.369-0.194,0.508c-0.13,0.14-0.305,0.209-0.522,0.209h-2.478c-0.198,0-0.369-0.069-0.506-0.209
		c-0.141-0.139-0.21-0.31-0.21-0.508v-1.164c-0.438,0.638-1.055,1.162-1.852,1.566c-0.795,0.409-1.789,0.614-2.984,0.614
		C21.906,23.141,20.975,22.936,20.13,22.527 M26.621,19.201c0.695-0.717,1.044-1.75,1.044-3.104V15.5l-2.983,0.477
		c-2.288,0.36-3.433,1.126-3.433,2.299c0,0.636,0.263,1.129,0.791,1.478c0.527,0.346,1.159,0.522,1.895,0.522
		C25.028,20.276,25.924,19.917,26.621,19.201"/>
	<path clip-path="url(#SVGID_6_)" d="M36.408,22.633c-0.138-0.139-0.208-0.308-0.208-0.506V8.04c0-0.219,0.07-0.393,0.208-0.523
		c0.14-0.128,0.31-0.193,0.509-0.193h2.356c0.22,0,0.394,0.065,0.522,0.193c0.129,0.13,0.194,0.304,0.194,0.523v1.015
		c1.075-1.353,2.517-2.029,4.327-2.029c2.209,0,3.752,0.885,4.626,2.655c0.477-0.795,1.152-1.437,2.029-1.925
		c0.876-0.486,1.821-0.729,2.836-0.729c1.63,0,2.962,0.555,3.997,1.671c1.035,1.113,1.553,2.734,1.553,4.864v8.566
		c0,0.198-0.065,0.367-0.192,0.506c-0.132,0.14-0.306,0.209-0.523,0.209h-2.477c-0.2,0-0.369-0.069-0.508-0.209
		c-0.139-0.139-0.21-0.308-0.21-0.506v-8.328c0-1.252-0.263-2.159-0.791-2.716c-0.528-0.556-1.218-0.835-2.074-0.835
		c-0.774,0-1.437,0.284-1.983,0.852c-0.548,0.566-0.82,1.467-0.82,2.7v8.328c0,0.198-0.064,0.367-0.195,0.506
		c-0.129,0.14-0.304,0.209-0.521,0.209h-2.506c-0.199,0-0.369-0.069-0.509-0.209c-0.14-0.139-0.209-0.308-0.209-0.506v-8.328
		c0-1.232-0.269-2.134-0.805-2.7c-0.538-0.567-1.226-0.852-2.059-0.852c-0.776,0-1.438,0.284-1.986,0.852
		c-0.548,0.566-0.819,1.467-0.819,2.7v8.328c0,0.198-0.065,0.367-0.194,0.506c-0.13,0.14-0.305,0.209-0.522,0.209h-2.536
		C36.718,22.842,36.548,22.773,36.408,22.633"/>
	<path clip-path="url(#SVGID_6_)" d="M67.746,21.021v1.104c0,0.199-0.072,0.369-0.21,0.508c-0.139,0.14-0.318,0.209-0.536,0.209
		h-2.389c-0.199,0-0.368-0.069-0.507-0.209c-0.14-0.139-0.209-0.31-0.209-0.508V2.368c0-0.219,0.069-0.392,0.209-0.521
		c0.139-0.13,0.308-0.194,0.507-0.194h2.597c0.22,0,0.393,0.064,0.521,0.194c0.13,0.129,0.194,0.302,0.194,0.521v6.627
		c1.115-1.314,2.637-1.97,4.566-1.97c2.009,0,3.557,0.652,4.64,1.956c1.086,1.302,1.658,3.009,1.718,5.119
		c0.019,0.238,0.029,0.565,0.029,0.984c0,0.399-0.011,0.727-0.029,0.985c-0.08,2.148-0.658,3.864-1.731,5.147
		c-1.074,1.283-2.617,1.925-4.626,1.925C70.422,23.141,68.838,22.435,67.746,21.021 M74.759,15.977
		c0.019-0.198,0.029-0.494,0.029-0.893c0-0.398-0.011-0.697-0.029-0.896c-0.139-2.627-1.274-3.94-3.403-3.94
		c-1.095,0-1.929,0.35-2.506,1.044c-0.577,0.697-0.886,1.542-0.926,2.537c-0.021,0.239-0.029,0.626-0.029,1.165
		c0,0.516,0.009,0.893,0.029,1.133c0.04,1.055,0.337,1.95,0.896,2.687c0.557,0.736,1.404,1.104,2.536,1.104
		C73.484,19.917,74.62,18.604,74.759,15.977"/>
	<path clip-path="url(#SVGID_6_)" d="M82.993,4.578c-0.138-0.14-0.207-0.311-0.207-0.508V1.892c0-0.219,0.069-0.398,0.207-0.537
		c0.141-0.141,0.31-0.209,0.509-0.209h2.745c0.219,0,0.399,0.069,0.538,0.209c0.139,0.138,0.208,0.318,0.208,0.537V4.07
		c0,0.197-0.075,0.368-0.225,0.508c-0.147,0.138-0.323,0.209-0.521,0.209h-2.745C83.303,4.787,83.134,4.716,82.993,4.578
		 M83.113,22.633c-0.139-0.139-0.207-0.308-0.207-0.506V8.04c0-0.219,0.068-0.393,0.207-0.523c0.14-0.128,0.31-0.193,0.508-0.193
		h2.538c0.198,0,0.367,0.07,0.506,0.209c0.139,0.14,0.21,0.309,0.21,0.507v14.087c0,0.198-0.071,0.367-0.21,0.506
		c-0.139,0.14-0.308,0.209-0.506,0.209h-2.538C83.423,22.842,83.253,22.773,83.113,22.633"/>
	<path clip-path="url(#SVGID_6_)" d="M93.248,22.527c-0.848-0.405-1.514-0.958-2.001-1.655c-0.489-0.697-0.731-1.463-0.731-2.299
		c0-1.352,0.548-2.447,1.643-3.283c1.094-0.835,2.595-1.4,4.507-1.702l4.087-0.596v-0.626c0-0.855-0.22-1.502-0.656-1.94
		c-0.438-0.438-1.134-0.655-2.089-0.655c-0.656,0-1.185,0.118-1.582,0.356c-0.399,0.239-0.721,0.484-0.97,0.732
		c-0.249,0.249-0.414,0.413-0.492,0.491c-0.08,0.24-0.229,0.358-0.448,0.358h-2.327c-0.18,0-0.334-0.061-0.464-0.179
		c-0.13-0.12-0.193-0.278-0.193-0.478c0.021-0.497,0.263-1.061,0.731-1.686c0.467-0.628,1.188-1.173,2.163-1.641
		c0.976-0.467,2.18-0.702,3.611-0.702c2.349,0,4.06,0.527,5.133,1.582c1.074,1.055,1.612,2.438,1.612,4.148v9.371
		c0,0.199-0.065,0.369-0.194,0.508c-0.129,0.14-0.303,0.209-0.522,0.209h-2.477c-0.199,0-0.369-0.069-0.507-0.209
		c-0.141-0.139-0.21-0.31-0.21-0.508v-1.164c-0.438,0.638-1.055,1.162-1.851,1.566c-0.795,0.409-1.79,0.614-2.984,0.614
		C95.022,23.141,94.093,22.936,93.248,22.527 M99.737,19.201c0.696-0.717,1.044-1.75,1.044-3.104V15.5l-2.982,0.477
		c-2.288,0.36-3.434,1.126-3.434,2.299c0,0.636,0.263,1.129,0.791,1.478c0.527,0.346,1.159,0.522,1.895,0.522
		C98.146,20.276,99.041,19.917,99.737,19.201"/>
	<path clip-path="url(#SVGID_6_)" d="M119.195,21.424c-0.916-0.944-1.374-2.333-1.374-4.162v-6.746h-2.357
		c-0.198,0-0.367-0.07-0.507-0.21c-0.139-0.138-0.209-0.307-0.209-0.506V8.041c0-0.198,0.07-0.369,0.209-0.509
		c0.14-0.137,0.309-0.208,0.507-0.208h2.357V2.368c0-0.219,0.07-0.392,0.21-0.521c0.14-0.13,0.31-0.194,0.506-0.194h2.479
		c0.219,0,0.393,0.064,0.523,0.194c0.128,0.129,0.192,0.302,0.192,0.521v4.956h3.73c0.199,0,0.369,0.071,0.508,0.208
		c0.14,0.141,0.21,0.311,0.21,0.509V9.8c0,0.199-0.07,0.368-0.21,0.506c-0.139,0.14-0.309,0.21-0.508,0.21h-3.73v6.418
		c0,0.854,0.15,1.5,0.449,1.938c0.298,0.438,0.785,0.658,1.461,0.658h2.091c0.218,0,0.392,0.065,0.521,0.195
		c0.129,0.128,0.194,0.302,0.194,0.521v1.88c0,0.198-0.065,0.369-0.194,0.508c-0.13,0.138-0.304,0.207-0.521,0.207h-2.448
		C121.474,22.841,120.11,22.37,119.195,21.424"/>
	<path clip-path="url(#SVGID_6_)" d="M131.252,21.351c-1.054-1.194-1.582-2.836-1.582-4.926V8.041c0-0.219,0.071-0.394,0.21-0.524
		c0.139-0.128,0.308-0.194,0.506-0.194h2.688c0.199,0,0.367,0.071,0.508,0.209c0.137,0.141,0.208,0.311,0.208,0.509v8.207
		c0,2.445,1.064,3.67,3.193,3.67c1.034,0,1.855-0.33,2.462-0.985c0.607-0.657,0.91-1.554,0.91-2.686V8.041
		c0-0.219,0.069-0.394,0.21-0.524c0.138-0.128,0.307-0.194,0.507-0.194h2.655c0.219,0,0.394,0.066,0.522,0.194
		c0.129,0.13,0.193,0.305,0.193,0.524v14.085c0,0.199-0.064,0.369-0.193,0.506c-0.129,0.14-0.304,0.209-0.522,0.209h-2.477
		c-0.198,0-0.368-0.069-0.506-0.209c-0.141-0.138-0.211-0.308-0.211-0.506v-1.223c-1.094,1.492-2.746,2.239-4.954,2.239
		C133.748,23.141,132.308,22.544,131.252,21.351"/>
	<path clip-path="url(#SVGID_6_)" d="M0.835,47.794c-0.139-0.139-0.208-0.307-0.208-0.505V33.203c0-0.22,0.069-0.394,0.208-0.525
		c0.139-0.127,0.31-0.194,0.508-0.194H3.82c0.218,0,0.393,0.067,0.522,0.194c0.129,0.131,0.193,0.305,0.193,0.525v1.222
		c1.213-1.492,2.875-2.237,4.983-2.237c1.831,0,3.283,0.594,4.359,1.788c1.073,1.195,1.61,2.836,1.61,4.925v8.389
		c0,0.198-0.065,0.367-0.195,0.505c-0.129,0.141-0.302,0.209-0.521,0.209h-2.686c-0.199,0-0.368-0.069-0.508-0.209
		c-0.139-0.139-0.208-0.307-0.208-0.505v-8.208c0-1.154-0.283-2.055-0.851-2.701c-0.567-0.644-1.378-0.969-2.433-0.969
		c-1.014,0-1.831,0.328-2.447,0.984c-0.617,0.656-0.926,1.553-0.926,2.686v8.208c0,0.198-0.064,0.367-0.194,0.505
		c-0.129,0.141-0.302,0.209-0.521,0.209H1.343C1.145,48.004,0.974,47.935,0.835,47.794"/>
	<path clip-path="url(#SVGID_6_)" d="M19.95,46.393c-1.304-1.273-1.994-3.085-2.073-5.432l-0.03-0.746
		c0-2.488,0.651-4.448,1.953-5.879c1.305-1.432,3.11-2.148,5.417-2.148c2.369,0,4.195,0.716,5.478,2.148
		c1.284,1.431,1.926,3.341,1.926,5.73v0.627c0,0.197-0.072,0.368-0.211,0.507c-0.138,0.138-0.317,0.208-0.535,0.208h-9.91v0.24
		c0.04,1.115,0.345,2.033,0.912,2.761c0.565,0.726,1.348,1.087,2.341,1.087c1.136,0,2.061-0.457,2.778-1.373
		c0.178-0.22,0.316-0.354,0.415-0.402c0.101-0.048,0.271-0.077,0.508-0.077h2.628c0.178,0,0.332,0.053,0.462,0.149
		c0.13,0.102,0.193,0.239,0.193,0.421c0,0.476-0.283,1.038-0.85,1.684c-0.568,0.646-1.378,1.209-2.434,1.686
		c-1.055,0.479-2.278,0.717-3.671,0.717C23.02,48.302,21.253,47.665,19.95,46.393 M28.5,38.872v-0.059
		c0-1.174-0.294-2.116-0.88-2.821c-0.586-0.707-1.388-1.06-2.403-1.06c-1.013,0-1.81,0.353-2.388,1.06
		c-0.575,0.705-0.865,1.646-0.865,2.821v0.059H28.5z"/>
	<path clip-path="url(#SVGID_6_)" d="M36.469,46.512c-1.053-1.194-1.582-2.836-1.582-4.925v-8.384c0-0.22,0.07-0.394,0.21-0.525
		c0.139-0.129,0.308-0.196,0.507-0.196h2.687c0.197,0,0.366,0.071,0.507,0.211c0.138,0.141,0.209,0.31,0.209,0.51v8.206
		c0,2.446,1.064,3.671,3.193,3.671c1.034,0,1.854-0.33,2.461-0.986c0.607-0.656,0.91-1.554,0.91-2.685v-8.206
		c0-0.22,0.069-0.394,0.21-0.525c0.139-0.129,0.308-0.196,0.508-0.196h2.655c0.22,0,0.393,0.067,0.522,0.196
		c0.13,0.131,0.194,0.305,0.194,0.525v14.084c0,0.199-0.064,0.369-0.194,0.506c-0.13,0.141-0.303,0.21-0.522,0.21h-2.478
		c-0.198,0-0.368-0.069-0.505-0.21c-0.141-0.137-0.21-0.307-0.21-0.506v-1.223c-1.095,1.491-2.746,2.239-4.955,2.239
		C38.965,48.303,37.523,47.706,36.469,46.512"/>
	<path clip-path="url(#SVGID_6_)" d="M53.063,47.794c-0.14-0.139-0.209-0.307-0.209-0.505V33.203c0-0.22,0.069-0.394,0.209-0.525
		c0.138-0.127,0.308-0.194,0.507-0.194h2.357c0.22,0,0.393,0.067,0.521,0.194c0.131,0.131,0.195,0.305,0.195,0.525v1.013
		c1.075-1.353,2.517-2.028,4.326-2.028c2.211,0,3.751,0.885,4.627,2.654c0.476-0.794,1.152-1.437,2.029-1.925
		c0.875-0.485,1.82-0.729,2.836-0.729c1.631,0,2.962,0.556,3.998,1.669c1.034,1.116,1.553,2.735,1.553,4.866v8.566
		c0,0.198-0.066,0.367-0.194,0.505c-0.131,0.141-0.304,0.209-0.523,0.209h-2.476c-0.2,0-0.369-0.069-0.508-0.209
		c-0.139-0.139-0.21-0.307-0.21-0.505v-8.328c0-1.252-0.263-2.159-0.79-2.717c-0.528-0.556-1.22-0.834-2.075-0.834
		c-0.774,0-1.437,0.282-1.983,0.851c-0.547,0.567-0.82,1.466-0.82,2.7v8.328c0,0.198-0.064,0.367-0.195,0.505
		c-0.131,0.141-0.304,0.209-0.522,0.209h-2.506c-0.197,0-0.369-0.069-0.508-0.209c-0.14-0.139-0.209-0.307-0.209-0.505v-8.328
		c0-1.234-0.269-2.133-0.805-2.7c-0.537-0.568-1.226-0.851-2.06-0.851c-0.776,0-1.438,0.282-1.985,0.851
		c-0.547,0.567-0.82,1.466-0.82,2.7v8.328c0,0.198-0.064,0.367-0.193,0.505c-0.129,0.141-0.305,0.209-0.522,0.209h-2.537
		C53.37,48.004,53.2,47.935,53.063,47.794"/>
	<path clip-path="url(#SVGID_6_)" d="M80.772,47.689c-0.847-0.406-1.513-0.958-2-1.654c-0.488-0.697-0.731-1.463-0.731-2.299
		c0-1.353,0.547-2.447,1.642-3.283s2.596-1.403,4.507-1.702l4.088-0.597v-0.625c0-0.856-0.22-1.503-0.656-1.939
		c-0.438-0.439-1.134-0.656-2.09-0.656c-0.656,0-1.185,0.118-1.581,0.355c-0.399,0.239-0.721,0.486-0.97,0.732
		c-0.25,0.25-0.414,0.413-0.492,0.492c-0.08,0.24-0.229,0.358-0.448,0.358h-2.327c-0.18,0-0.334-0.061-0.464-0.179
		c-0.129-0.119-0.193-0.278-0.193-0.477c0.02-0.497,0.263-1.06,0.731-1.686c0.467-0.628,1.188-1.174,2.163-1.642
		c0.975-0.466,2.18-0.702,3.611-0.702c2.349,0,4.06,0.527,5.133,1.582c1.074,1.055,1.612,2.438,1.612,4.148v9.372
		c0,0.199-0.065,0.369-0.194,0.507c-0.13,0.141-0.303,0.21-0.521,0.21h-2.479c-0.198,0-0.368-0.069-0.506-0.21
		c-0.14-0.139-0.209-0.309-0.209-0.507v-1.164c-0.439,0.637-1.056,1.16-1.853,1.565c-0.794,0.408-1.789,0.614-2.983,0.614
		C82.548,48.303,81.618,48.098,80.772,47.689 M87.264,44.362c0.694-0.717,1.043-1.75,1.043-3.103V40.66l-2.983,0.479
		c-2.288,0.359-3.433,1.127-3.433,2.3c0,0.635,0.264,1.128,0.791,1.477c0.527,0.348,1.159,0.522,1.895,0.522
		C85.67,45.438,86.566,45.08,87.264,44.362"/>
	<path clip-path="url(#SVGID_6_)" d="M98.186,46.585c-0.916-0.945-1.374-2.332-1.374-4.163v-6.744h-2.357
		c-0.198,0-0.367-0.07-0.507-0.21c-0.139-0.139-0.209-0.307-0.209-0.506v-1.759c0-0.2,0.07-0.37,0.209-0.51
		c0.14-0.138,0.309-0.209,0.507-0.209h2.357V27.53c0-0.22,0.069-0.392,0.21-0.522c0.139-0.127,0.309-0.193,0.507-0.193h2.477
		c0.22,0,0.393,0.065,0.523,0.193c0.128,0.13,0.194,0.303,0.194,0.522v4.954h3.73c0.198,0,0.368,0.072,0.507,0.209
		c0.139,0.14,0.21,0.31,0.21,0.51v1.759c0,0.199-0.071,0.367-0.21,0.506c-0.139,0.141-0.309,0.21-0.507,0.21h-3.73v6.416
		c0,0.854,0.147,1.501,0.448,1.94c0.298,0.437,0.785,0.657,1.462,0.657h2.089c0.218,0,0.394,0.064,0.522,0.194
		c0.129,0.129,0.194,0.303,0.194,0.521v1.88c0,0.199-0.065,0.369-0.194,0.507c-0.129,0.14-0.305,0.208-0.522,0.208h-2.447
		C100.465,48.003,99.1,47.532,98.186,46.585"/>
	<path clip-path="url(#SVGID_6_)" d="M107.437,29.74c-0.139-0.14-0.208-0.311-0.208-0.507v-2.18c0-0.219,0.069-0.397,0.208-0.536
		c0.141-0.141,0.31-0.21,0.508-0.21h2.745c0.219,0,0.398,0.069,0.539,0.21c0.138,0.139,0.206,0.316,0.206,0.536v2.18
		c0,0.196-0.073,0.367-0.224,0.507c-0.147,0.14-0.322,0.209-0.521,0.209h-2.745C107.746,29.949,107.577,29.879,107.437,29.74
		 M107.557,47.794c-0.14-0.139-0.208-0.307-0.208-0.505V33.203c0-0.22,0.068-0.394,0.208-0.525c0.139-0.127,0.309-0.194,0.508-0.194
		h2.537c0.199,0,0.368,0.072,0.507,0.211c0.138,0.14,0.209,0.309,0.209,0.508v14.086c0,0.198-0.071,0.367-0.209,0.505
		c-0.139,0.141-0.308,0.209-0.507,0.209h-2.537C107.865,48.004,107.695,47.935,107.557,47.794"/>
	<path clip-path="url(#SVGID_6_)" d="M115.987,46.481c-1.304-1.212-1.995-2.894-2.073-5.043l-0.03-1.193l0.03-1.194
		c0.078-2.147,0.77-3.83,2.073-5.043c1.303-1.214,3.049-1.82,5.236-1.82c1.573,0,2.901,0.278,3.985,0.833
		c1.084,0.557,1.89,1.24,2.417,2.046c0.528,0.804,0.812,1.577,0.851,2.313c0.02,0.197-0.043,0.367-0.193,0.506
		c-0.149,0.14-0.323,0.21-0.522,0.21h-2.657c-0.218,0-0.377-0.045-0.476-0.134c-0.1-0.092-0.199-0.253-0.298-0.493
		c-0.301-0.756-0.692-1.303-1.18-1.641c-0.49-0.34-1.11-0.509-1.866-0.509c-1.015,0-1.806,0.319-2.373,0.956
		c-0.566,0.638-0.87,1.611-0.91,2.925l-0.029,1.104l0.029,0.984c0.12,2.587,1.215,3.88,3.283,3.88c0.775,0,1.403-0.166,1.88-0.494
		c0.478-0.329,0.865-0.88,1.166-1.655c0.079-0.22,0.173-0.379,0.281-0.479c0.111-0.099,0.274-0.148,0.492-0.148h2.657
		c0.199,0,0.373,0.071,0.522,0.21c0.15,0.14,0.213,0.308,0.193,0.507c-0.039,0.698-0.318,1.447-0.836,2.253
		c-0.517,0.807-1.313,1.498-2.387,2.075c-1.074,0.576-2.418,0.864-4.03,0.864C119.036,48.302,117.29,47.696,115.987,46.481"/>
	<path clip-path="url(#SVGID_6_)" d="M132.296,46.511c-1.272-1.192-1.959-2.844-2.059-4.952l-0.031-1.314l0.031-1.314
		c0.1-2.087,0.795-3.733,2.089-4.939c1.293-1.204,3.094-1.805,5.402-1.805c2.286,0,4.078,0.602,5.371,1.805
		c1.293,1.206,1.988,2.852,2.089,4.939c0.019,0.238,0.031,0.677,0.031,1.314c0,0.636-0.013,1.075-0.031,1.314
		c-0.101,2.108-0.787,3.76-2.059,4.952c-1.273,1.194-3.073,1.792-5.401,1.792C135.38,48.303,133.57,47.705,132.296,46.511
		 M140.159,44.304c0.568-0.658,0.871-1.621,0.911-2.896c0.02-0.198,0.029-0.586,0.029-1.164c0-0.576-0.01-0.965-0.029-1.165
		c-0.04-1.272-0.349-2.242-0.925-2.908c-0.577-0.667-1.383-1-2.417-1c-1.055,0-1.873,0.333-2.447,1
		c-0.578,0.666-0.887,1.636-0.926,2.908l-0.03,1.165l0.03,1.164c0.039,1.274,0.348,2.237,0.926,2.896
		c0.574,0.656,1.393,0.984,2.447,0.984C138.782,45.288,139.594,44.959,140.159,44.304"/>
	<path clip-path="url(#SVGID_6_)" fill="#DA442C" d="M222.823,53.28h-72.11c-0.87,0-1.576-0.707-1.576-1.577v-23.49
		c0-0.873,0.706-1.577,1.576-1.577h72.11c0.512,0,0.99,0.245,1.286,0.662l8.341,11.747c0.391,0.546,0.391,1.277,0,1.825
		l-8.341,11.746C223.813,53.032,223.335,53.28,222.823,53.28"/>
	<path clip-path="url(#SVGID_6_)" fill="#FFFFFF" d="M153.961,47.937c-0.14-0.14-0.209-0.308-0.209-0.507v-3.013
		c0-0.198,0.069-0.369,0.209-0.509c0.138-0.139,0.307-0.209,0.507-0.209h3.014c0.198,0,0.368,0.071,0.508,0.209
		c0.139,0.14,0.211,0.311,0.211,0.509v3.013c0,0.199-0.066,0.367-0.196,0.507s-0.303,0.209-0.522,0.209h-3.014
		C154.268,48.146,154.099,48.077,153.961,47.937"/>
	<path clip-path="url(#SVGID_6_)" fill="#FFFFFF" d="M162.481,46.624c-1.305-1.213-1.995-2.895-2.074-5.042l-0.029-1.195
		l0.029-1.194c0.079-2.149,0.77-3.83,2.074-5.043c1.303-1.215,3.048-1.82,5.236-1.82c1.572,0,2.9,0.278,3.984,0.836
		c1.084,0.555,1.89,1.237,2.417,2.043c0.528,0.804,0.813,1.577,0.852,2.313c0.019,0.199-0.045,0.368-0.194,0.506
		c-0.15,0.141-0.323,0.21-0.521,0.21h-2.657c-0.218,0-0.377-0.047-0.477-0.135c-0.1-0.089-0.198-0.253-0.299-0.492
		c-0.299-0.756-0.691-1.304-1.179-1.643c-0.488-0.337-1.109-0.506-1.865-0.506c-1.016,0-1.807,0.319-2.375,0.954
		c-0.564,0.639-0.869,1.612-0.908,2.925l-0.03,1.104l0.03,0.985c0.12,2.586,1.214,3.879,3.283,3.879
		c0.775,0,1.403-0.164,1.879-0.494c0.479-0.329,0.866-0.88,1.165-1.653c0.08-0.221,0.174-0.381,0.283-0.478
		c0.11-0.102,0.274-0.15,0.492-0.15h2.657c0.198,0,0.371,0.069,0.521,0.208c0.149,0.14,0.213,0.309,0.194,0.507
		c-0.039,0.698-0.319,1.448-0.836,2.254c-0.518,0.806-1.314,1.497-2.388,2.074s-2.417,0.866-4.029,0.866
		C165.529,48.444,163.784,47.838,162.481,46.624"/>
	<path clip-path="url(#SVGID_6_)" fill="#FFFFFF" d="M178.79,46.652c-1.272-1.192-1.958-2.843-2.059-4.953l-0.031-1.312l0.031-1.313
		c0.101-2.088,0.796-3.735,2.088-4.94c1.294-1.204,3.095-1.806,5.403-1.806c2.286,0,4.077,0.602,5.371,1.806
		c1.293,1.205,1.988,2.852,2.09,4.94c0.018,0.239,0.029,0.675,0.029,1.313c0,0.636-0.012,1.074-0.029,1.312
		c-0.102,2.11-0.787,3.761-2.061,4.953c-1.272,1.195-3.073,1.792-5.4,1.792C181.874,48.445,180.064,47.847,178.79,46.652
		 M186.654,44.445c0.567-0.656,0.871-1.621,0.91-2.894c0.021-0.2,0.029-0.588,0.029-1.164c0-0.577-0.009-0.966-0.029-1.165
		c-0.039-1.272-0.35-2.242-0.924-2.91c-0.578-0.666-1.384-0.999-2.418-0.999c-1.056,0-1.872,0.333-2.447,0.999
		c-0.578,0.668-0.887,1.638-0.926,2.91l-0.029,1.165l0.029,1.164c0.039,1.273,0.348,2.238,0.926,2.894
		c0.575,0.656,1.392,0.984,2.447,0.984C185.276,45.429,186.088,45.101,186.654,44.445"/>
	<path clip-path="url(#SVGID_6_)" fill="#FFFFFF" d="M194.487,47.937c-0.139-0.14-0.208-0.308-0.208-0.507V33.343
		c0-0.219,0.069-0.392,0.208-0.521c0.139-0.129,0.31-0.194,0.508-0.194h2.357c0.22,0,0.393,0.065,0.522,0.194
		c0.13,0.129,0.193,0.303,0.193,0.521v1.017c1.076-1.355,2.518-2.03,4.327-2.03c2.209,0,3.752,0.886,4.626,2.656
		c0.477-0.796,1.153-1.438,2.03-1.926c0.875-0.486,1.82-0.729,2.836-0.729c1.631,0,2.963,0.557,3.997,1.67
		c1.034,1.115,1.554,2.736,1.554,4.865v8.565c0,0.199-0.066,0.367-0.194,0.507c-0.131,0.14-0.305,0.209-0.523,0.209h-2.476
		c-0.2,0-0.369-0.069-0.508-0.209s-0.21-0.308-0.21-0.507v-8.328c0-1.251-0.264-2.158-0.79-2.715
		c-0.528-0.556-1.219-0.835-2.075-0.835c-0.774,0-1.438,0.284-1.984,0.852c-0.547,0.566-0.819,1.466-0.819,2.699v8.328
		c0,0.199-0.064,0.367-0.195,0.507c-0.129,0.14-0.303,0.209-0.522,0.209h-2.506c-0.199,0-0.369-0.069-0.508-0.209
		c-0.141-0.14-0.21-0.308-0.21-0.507v-8.328c0-1.233-0.268-2.133-0.804-2.699c-0.538-0.567-1.226-0.852-2.06-0.852
		c-0.776,0-1.438,0.284-1.985,0.852c-0.547,0.566-0.819,1.466-0.819,2.699v8.328c0,0.199-0.065,0.367-0.195,0.507
		c-0.129,0.14-0.304,0.209-0.521,0.209h-2.537C194.797,48.146,194.626,48.077,194.487,47.937"/>
</g>
<path fill="#FFFFFF" d="M157.374,47.865c-0.141-0.14-0.21-0.312-0.21-0.511v-3.033c0-0.199,0.069-0.373,0.21-0.513
	c0.139-0.141,0.31-0.213,0.511-0.213h3.034c0.199,0,0.369,0.072,0.511,0.213c0.14,0.141,0.211,0.314,0.211,0.513v3.033
	c0,0.2-0.067,0.371-0.196,0.511c-0.131,0.141-0.305,0.211-0.525,0.211h-3.034C157.684,48.076,157.513,48.006,157.374,47.865"/>
<path fill="#FFFFFF" d="M165.951,46.544c-1.313-1.222-2.009-2.917-2.088-5.078l-0.029-1.205l0.029-1.2
	c0.079-2.162,0.774-3.855,2.088-5.078c1.312-1.222,3.068-1.833,5.271-1.833c1.584,0,2.92,0.281,4.013,0.843
	c1.091,0.56,1.901,1.244,2.432,2.056c0.532,0.81,0.818,1.588,0.857,2.33c0.019,0.2-0.045,0.369-0.195,0.509
	c-0.151,0.143-0.325,0.21-0.525,0.21h-2.675c-0.22,0-0.381-0.044-0.479-0.134c-0.1-0.092-0.201-0.257-0.3-0.498
	c-0.303-0.759-0.697-1.31-1.189-1.652c-0.491-0.338-1.115-0.509-1.877-0.509c-1.021,0-1.817,0.322-2.389,0.961
	c-0.57,0.643-0.876,1.622-0.916,2.945l-0.03,1.11l0.03,0.992c0.121,2.604,1.223,3.906,3.305,3.906c0.781,0,1.413-0.165,1.893-0.498
	c0.48-0.329,0.871-0.884,1.174-1.664c0.079-0.221,0.175-0.384,0.283-0.482c0.112-0.101,0.276-0.149,0.496-0.149h2.675
	c0.2,0,0.374,0.07,0.525,0.208c0.15,0.143,0.214,0.312,0.195,0.511c-0.039,0.702-0.321,1.459-0.842,2.269s-1.321,1.507-2.403,2.089
	c-1.082,0.58-2.434,0.871-4.057,0.871C169.02,48.376,167.263,47.767,165.951,46.544"/>
<path fill="#FFFFFF" d="M182.369,46.573c-1.281-1.2-1.972-2.861-2.071-4.987l-0.032-1.321l0.032-1.321
	c0.1-2.102,0.8-3.761,2.102-4.975c1.302-1.209,3.114-1.817,5.438-1.817c2.302,0,4.104,0.608,5.407,1.817
	c1.303,1.213,2.002,2.873,2.104,4.975c0.02,0.239,0.029,0.678,0.029,1.321c0,0.641-0.01,1.082-0.029,1.321
	c-0.102,2.126-0.793,3.787-2.073,4.987c-1.281,1.203-3.095,1.804-5.438,1.804C185.474,48.376,183.652,47.775,182.369,46.573
	 M190.286,44.35c0.572-0.661,0.877-1.63,0.916-2.914c0.02-0.2,0.029-0.59,0.029-1.172c0-0.579-0.01-0.972-0.029-1.171
	c-0.039-1.282-0.351-2.258-0.931-2.93s-1.392-1.007-2.434-1.007c-1.062,0-1.885,0.335-2.463,1.007
	c-0.582,0.671-0.892,1.648-0.932,2.93l-0.03,1.171l0.03,1.172c0.04,1.284,0.35,2.253,0.932,2.914
	c0.578,0.661,1.401,0.992,2.463,0.992C188.898,45.342,189.717,45.011,190.286,44.35"/>
<path fill="#FFFFFF" d="M198.172,47.865c-0.14-0.14-0.209-0.312-0.209-0.511V33.172c0-0.219,0.069-0.393,0.209-0.524
	c0.14-0.129,0.311-0.195,0.511-0.195h2.374c0.222,0,0.396,0.066,0.525,0.195c0.131,0.131,0.195,0.305,0.195,0.524v1.025
	c1.083-1.365,2.533-2.045,4.355-2.045c2.225,0,3.776,0.891,4.659,2.675c0.479-0.803,1.159-1.448,2.042-1.938
	c0.882-0.491,1.832-0.737,2.854-0.737c1.642,0,2.983,0.562,4.024,1.683s1.563,2.754,1.563,4.897v8.622
	c0,0.2-0.066,0.371-0.195,0.511c-0.132,0.141-0.307,0.211-0.527,0.211h-2.492c-0.202,0-0.372-0.07-0.512-0.211
	c-0.139-0.14-0.21-0.312-0.21-0.511v-8.382c0-1.262-0.266-2.172-0.796-2.734c-0.532-0.562-1.227-0.843-2.089-0.843
	c-0.78,0-1.447,0.288-1.998,0.858c-0.55,0.571-0.825,1.477-0.825,2.719v8.382c0,0.2-0.064,0.371-0.197,0.511
	c-0.129,0.141-0.304,0.211-0.524,0.211h-2.522c-0.2,0-0.373-0.07-0.512-0.211c-0.141-0.14-0.211-0.312-0.211-0.511v-8.382
	c0-1.242-0.271-2.148-0.81-2.719c-0.541-0.57-1.232-0.858-2.073-0.858c-0.78,0-1.448,0.288-1.999,0.858
	c-0.551,0.571-0.826,1.477-0.826,2.719v8.382c0,0.2-0.064,0.371-0.194,0.511c-0.13,0.141-0.307,0.211-0.525,0.211h-2.555
	C198.482,48.076,198.312,48.006,198.172,47.865"/>
</svg>
