<?xml version="1.0" encoding="utf-8"?>
<!-- Generator: Adobe Illustrator 15.0.0, SVG Export Plug-In  -->
<!DOCTYPE svg PUBLIC "-//W3C//DTD SVG 1.1//EN" "http://www.w3.org/Graphics/SVG/1.1/DTD/svg11.dtd" [
	<!ENTITY ns_flows "http://ns.adobe.com/Flows/1.0/">
]>
<svg version="1.1"
	 xmlns="http://www.w3.org/2000/svg" xmlns:xlink="http://www.w3.org/1999/xlink" xmlns:a="http://ns.adobe.com/AdobeSVGViewerExtensions/3.0/"
	 x="0px" y="0px" width="60px" height="60px" viewBox="0 0 60 60" enable-background="new 0 0 60 60" xml:space="preserve">
<defs>
</defs>
<path fill="#FFFFFF" d="M38.787,0h-17.35C9.617,0,0,13.402,0,29.877C0,46.349,9.617,59.75,21.438,59.75h16.539
	c0.072,0,0.141-0.014,0.211-0.021c0.199,0.008,0.398,0.021,0.6,0.021c11.819,0,21.436-13.401,21.436-29.873
	C60.223,13.402,50.606,0,38.787,0z M21.438,55.75C11.822,55.75,4,44.144,4,29.877C4,15.608,11.822,4,21.438,4h6.655
	C21.678,9.169,17.35,18.828,17.35,29.877c0,11.046,4.328,20.704,10.742,25.873H21.438z M38.787,55.75
	c-9.615,0-17.438-11.606-17.438-25.873C21.35,15.608,29.172,4,38.787,4c9.614,0,17.436,11.608,17.436,25.877
	C56.223,44.144,48.401,55.75,38.787,55.75z"/>
<path fill="#FFFFFF" d="M42.023,17.869c-5.035,0-8.979,5.274-8.979,12.007s3.943,12.007,8.979,12.007
	c5.033,0,8.977-5.274,8.977-12.007S47.057,17.869,42.023,17.869z M42.023,37.883c-2.698,0-4.979-3.667-4.979-8.007
	s2.28-8.007,4.979-8.007c2.697,0,4.977,3.667,4.977,8.007S44.721,37.883,42.023,37.883z"/>
</svg>
